Genrerama | Fantasy | Horror
Language:English  http://www.imdb.com/title/tt1228987/
Source:BluRay.x264-Felony
Subtitles:Romana


Format                           : Matroska
File size                        : 2.32 GiB
Duration                         : 1h 55mn
Overall bit rate                 : 2 873 Kbps


Video
Format settings, CABAC           : Yes
Format settings, ReFrames        : 4 frames
Codec ID                         : V_MPEG4/ISO/AVC
Duration                         : 1h 55mn
Bit rate                         : 2 200 Kbps
Width                            : 1 280 pixels
Height                           : 544 pixels
Display aspect ratio             : 2.35:1
Frame rate mode                  : Variable
Frame rate                       : 23.976 fps
Color space                      : YUV
Chroma subsampling               : 4:2:0
Bit depth                        : 8 bits
Scan type                        : Progressive
Bits/(Pixel*Frame)               : 0.132
Stream size                      : 1.76 GiB (76%)
Writing library                  : x264 


Audio
ID                               : 2
Format                           : AC-3
Format/Info                      : Audio Coding 3
Mode extension                   : CM (complete main)
Codec ID                         : A_AC3
Duration                         : 1h 55mn
Bit rate mode                    : Constant
Bit rate                         : 640 Kbps
Channel(s)                       : 6 channels
Channel positions                : Front: L C R, Side: L R, LFE
Sampling rate                    : 48.0 KHz
Bit depth                        : 16 bits
Video delay                      : -1mn 5s
Stream size                      : 530 MiB (22%)
Language                         : English


    
Plot:
A bullied young boy befriends a young female vampire who lives in secrecy with her guardian

